<?xml version="1.0" encoding="utf-8"?>
<!-- Generator: Adobe Illustrator 15.0.0, SVG Export Plug-In . SVG Version: 6.00 Build 0)  -->
<!DOCTYPE svg PUBLIC "-//W3C//DTD SVG 1.1//EN" "http://www.w3.org/Graphics/SVG/1.1/DTD/svg11.dtd">
<svg version="1.1" id="Layer_1" xmlns="http://www.w3.org/2000/svg" xmlns:xlink="http://www.w3.org/1999/xlink" x="0px" y="0px"
	 width="530px" height="400px" viewBox="0 0 530 400" enable-background="new 0 0 530 400" xml:space="preserve">
<g>
	<polygon fill="#DD6B6B" points="264.417,200 264.417,200.166 264.917,200.166 264.583,199.834 	"/>
	<polygon fill="#DD6B6B" points="264.417,199.666 264.417,200 264.583,199.834 	"/>
	<polygon fill="#DD6B6B" points="264.25,200.166 264.417,200.166 264.417,200 	"/>
	<path fill="#DD6B6B" d="M374.186,90.232c-28.05-28.051-67.008-45.398-109.811-45.398c-0.056,0-0.375,0.002-0.375,0.002v154.83
		l0.917,0.334H419.58c0,0,0.004-0.138,0.004-0.249C419.584,156.948,402.235,118.281,374.186,90.232z"/>
	<path fill="#3D5A98" d="M419.58,200H264.917l109.269,109.27C402.162,281.293,419.49,243,419.58,200z"/>
	<path fill="#6BA9CE" d="M264.917,200h-0.666H264V44.836c-42,0.045-81.214,17.383-109.227,45.396
		c-28.05,28.049-45.294,66.799-45.294,109.602c0,0.111,0.056,0.221,0.056,0.332c0.09,42.67,17.444,81.293,45.42,109.27
		c28.013,28.012,66.712,45.352,109.448,45.396c0.056,0,0.118,0.002,0.173,0.002c42.802,0,81.556-17.433,109.606-45.481L264.917,200z
		"/>
	<g>
		<path fill="#FFFFFF" d="M320.34,158.797c0-0.447-0.056-0.839-0.156-1.263c-0.536-2.097-2.67-3.224-5.317-5.064
			c-0.963-0.312-2.023-0.483-3.16-0.495c-4.876-0.054-9.007,2.994-9.007,6.628c0,1.709,0.755,3.557,2.04,4.398h13.983
			C319.861,162.159,320.34,160.452,320.34,158.797z"/>
		<path fill="#FFFFFF" d="M312.31,150.532c-0.965-0.938-1.745-1.749-1.745-3.167c0-0.842,0.269-1.646,0.645-2.367
			c-0.384,0.028-0.899,0.049-1.302,0.049c-3.612,0-6.225-1.583-7.907-4.012v11.919c2.524-1.458,4.87-2.403,7.982-2.403
			C310.752,150.552,311.58,150.532,312.31,150.532z"/>
		<path fill="#FFFFFF" d="M342.231,122h-38.692c-0.709,0-1.539,0.494-1.539,1.202v8.232c2.524-2.961,5.928-4.434,10.16-4.434
			c3.175,0,12.14,0,12.14,0l-2.712,2H318.4c2.249,1,3.444,4.03,3.444,6.954c0,2.684-1.486,4.892-3.587,6.533
			c-2.05,1.601-2.438,2.293-2.438,3.654c0,1.162,2.449,2.904,3.575,3.749c3.921,2.94,4.714,4.704,4.714,8.382
			c0,1.683-0.668,3.044-1.908,4.728h20.031c0.709,0,0.769-0.396,0.769-1.104v-38.694C343,122.494,342.94,122,342.231,122z M339,134
			h-6v6h-2v-6h-6v-1h6v-6h2v6h6V134z"/>
		<path fill="#FFFFFF" d="M316.966,136.225c-0.563-4.296-3.363-7.821-6.634-7.92c-3.272-0.097-5.467,3.191-4.902,7.489
			c0.565,4.296,3.675,7.299,6.947,7.398C315.648,143.289,317.53,140.523,316.966,136.225z"/>
	</g>
	<g>
		<path fill="#FFFFFF" d="M237,214.924c0-1.062-0.86-1.924-1.922-1.924h-58.156c-1.062,0-1.922,0.861-1.922,1.924v58.152
			c0,1.062,0.86,1.924,1.922,1.924h58.156c1.062,0,1.922-0.861,1.922-1.924V214.924z M225.105,235.762
			c0,24.018-24.091,33.684-39.782,23.125c0,0,7.436,0.967,13.385-3.793c0,0-6.618,0-8.627-6.32c0,0,2.751,0.445,4.239-0.225
			c0,0-6.988-1.484-7.36-9.07c0,0,1.189,1.34,4.239,1.191c0,0-6.693-4.09-2.901-12.418c0,0,7.329,10.311,18.812,9.666
			c-1.413-5.504,2.454-9.74,5.724-10.781c3.273-1.039,7.436-0.223,9.89,2.453c0,0,3.645-0.893,5.875-2.232
			c0,0-1.266,3.57-4.165,4.984c0,0,2.305-0.074,5.354-1.414C229.79,230.928,228.004,233.605,225.105,235.762z"/>
	</g>
	<g>
		<path fill="#FFFFFF" d="M368.272,219H339.08c-0.535,0-2.08,0.447-2.08,0.984v29.191c0,0.535,1.545,0.824,2.08,0.824H354v-12h-4v-5
			h4v-3.074c0-4.023,2.121-6.213,5.709-6.213c1.719,0,3.291,0.129,3.291,0.186V228h-1.249c-1.951,0-2.751,1.029-2.751,2.391V233
			h5.245l-0.606,5H359v12h9.272c0.534,0,0.728-0.289,0.728-0.824v-29.191C369,219.447,368.807,219,368.272,219z"/>
	</g>
	<text transform="matrix(1 0 0 1 247.1328 275.166)"><tspan x="0" y="0" fill="#FFFFFF" font-family="'DroidSans'" font-size="24">5</tspan><tspan x="11.832" y="0" fill="#FFFFFF" font-family="'DroidSans'" font-size="24">k</tspan></text>
	<text transform="matrix(1 0 0 1 374.1328 250.166)"><tspan x="0" y="0" fill="#FFFFFF" font-family="'DroidSans'" font-size="24">1</tspan><tspan x="11.832" y="0" fill="#FFFFFF" font-family="'DroidSans'" font-size="24">k</tspan></text>
	<text transform="matrix(1 0 0 1 351.6328 163.1665)"><tspan x="0" y="0" fill="#FFFFFF" font-family="'DroidSans'" font-size="24">2</tspan><tspan x="11.832" y="0" fill="#FFFFFF" font-family="'DroidSans'" font-size="24">k</tspan></text>
</g>
</svg>
